<?xml version="1.0" encoding="UTF-8" standalone="no"?>
<!-- Created with Inkscape (http://www.inkscape.org/) -->

<svg
   width="53.90601mm"
   height="75mm"
   viewBox="0 0 53.90601 75"
   version="1.1"
   id="svg439"
   inkscape:version="1.1.1 (3bf5ae0d25, 2021-09-20)"
   sodipodi:docname="off.svg"
   xmlns:inkscape="http://www.inkscape.org/namespaces/inkscape"
   xmlns:sodipodi="http://sodipodi.sourceforge.net/DTD/sodipodi-0.dtd"
   xmlns="http://www.w3.org/2000/svg"
   xmlns:svg="http://www.w3.org/2000/svg">
  <sodipodi:namedview
     id="namedview441"
     pagecolor="#ffffff"
     bordercolor="#666666"
     borderopacity="1.0"
     inkscape:pageshadow="2"
     inkscape:pageopacity="0.0"
     inkscape:pagecheckerboard="0"
     inkscape:document-units="mm"
     showgrid="false"
     inkscape:zoom="0.74118967"
     inkscape:cx="186.86175"
     inkscape:cy="39.800878"
     inkscape:window-width="2560"
     inkscape:window-height="1377"
     inkscape:window-x="3832"
     inkscape:window-y="-8"
     inkscape:window-maximized="1"
     inkscape:current-layer="layer1" />
  <defs
     id="defs436" />
  <g
     inkscape:label="Layer 1"
     inkscape:groupmode="layer"
     id="layer1"
     transform="translate(-55.551661,-137.86567)">
    <g
       id="g595"
       transform="matrix(0.14648196,0,0,0.14648196,45.004729,137.86574)">
      <g
         id="g509">
        <g
           id="g445">
          <path
             style="fill:#868491"
             d="m 280.01,464.008 h -48 c -4.422,0 -8,3.578 -8,8 v 8 c 0,17.648 14.352,32 32,32 17.648,0 32,-14.352 32,-32 v -8 c 0,-4.422 -3.578,-8 -8,-8 z"
             id="path443" />
        </g>
        <g
           id="g449">
          <path
             style="fill:#5c546a"
             d="M 256.002,464.008 H 232.01 c -4.422,0 -8,3.578 -8,8 v 8 c 0,17.646 14.347,31.995 31.992,31.999 z"
             id="path447" />
        </g>
        <g
           id="g453">
          <path
             style="fill:#ffcd00"
             d="M 381.983,49.895 C 344.592,14.754 295.616,-2.847 244.249,0.375 150.639,6.2 75.014,84.286 72.092,178.149 c -2.156,69.547 34.375,133.578 95.344,167.117 15.156,8.344 24.57,24.367 24.57,41.828 v 60.914 c 0,17.648 14.352,32 32,32 h 64 c 17.648,0 32,-14.352 32,-32 v -60.914 c 0,-17.445 9.484,-33.508 24.766,-41.93 58.742,-32.406 95.234,-94.156 95.234,-161.156 0,-50.578 -21.148,-99.461 -58.023,-134.113 z"
             id="path451" />
        </g>
        <g
           id="g457">
          <circle
             style="fill:#ffe671"
             cx="256.00201"
             cy="184.008"
             r="128"
             id="circle455" />
        </g>
        <g
           id="g463">
          <g
             id="g461">
            <path
               style="fill:#ffffff"
               d="m 283.986,232.008 c -10.633,0 -16.07,-6.203 -20.031,-10.727 -3.492,-3.984 -4.883,-5.273 -8,-5.273 -3.102,0 -4.484,1.289 -7.961,5.266 -3.734,4.273 -9.383,10.734 -20.016,10.734 -10.625,0 -16.273,-6.461 -20.008,-10.734 -3.477,-3.977 -4.859,-5.266 -7.961,-5.266 -4.422,0 -8,-3.578 -8,-8 0,-4.422 3.578,-8 8,-8 10.625,0 16.273,6.461 20.008,10.734 3.477,3.977 4.859,5.266 7.961,5.266 3.102,0 4.492,-1.289 7.969,-5.266 3.734,-4.273 9.383,-10.734 20.008,-10.734 10.633,0 16.07,6.203 20.031,10.727 3.492,3.984 4.883,5.273 8,5.273 3.109,0 4.5,-1.289 7.992,-5.266 3.742,-4.273 9.391,-10.734 20.031,-10.734 4.422,0 8,3.578 8,8 0,4.422 -3.578,8 -8,8 -3.117,0 -4.508,1.289 -8,5.273 -3.742,4.274 -9.39,10.727 -20.023,10.727 z"
               id="path459" />
          </g>
        </g>
        <g
           id="g469">
          <g
             id="g467">
            <path
               style="fill:#5c546a"
               d="m 232.002,384.008 c -3.68,0 -6.992,-2.555 -7.813,-6.297 l -40,-184 c -0.938,-4.32 1.805,-8.578 6.117,-9.523 4.344,-0.953 8.578,1.805 9.523,6.117 l 40,184 c 0.938,4.32 -1.805,8.578 -6.117,9.523 -0.577,0.126 -1.148,0.18 -1.71,0.18 z"
               id="path465" />
          </g>
        </g>
        <g
           id="g475">
          <g
             id="g473">
            <path
               style="fill:#5c546a"
               d="m 280.017,384.008 c -0.563,0 -1.133,-0.055 -1.711,-0.18 -4.313,-0.945 -7.055,-5.203 -6.117,-9.523 l 40,-184 c 0.945,-4.313 5.164,-7.063 9.523,-6.117 4.313,0.945 7.055,5.203 6.117,9.523 l -40,184 c -0.819,3.743 -4.132,6.297 -7.812,6.297 z"
               id="path471" />
          </g>
        </g>
        <g
           id="g479">
          <path
             style="fill:#b4b6bc"
             d="m 190.633,376.008 c 0.851,3.593 1.374,7.293 1.374,11.086 v 60.914 c 0,17.648 14.352,32 32,32 h 64 c 17.648,0 32,-14.352 32,-32 v -60.914 c 0,-3.79 0.527,-7.491 1.384,-11.086 z"
             id="path477" />
        </g>
        <g
           id="g483">
          <path
             style="fill:#868491"
             d="m 256.002,376.008 h -65.369 c 0.851,3.593 1.374,7.293 1.374,11.086 v 60.914 c 0,17.648 14.352,32 32,32 h 31.995 z"
             id="path481" />
        </g>
        <g
           id="g489">
          <g
             id="g487">
            <rect
               x="256.00201"
               y="400.008"
               style="fill:#868491"
               width="64"
               height="16"
               id="rect485" />
          </g>
        </g>
        <g
           id="g495">
          <g
             id="g493">
            <rect
               x="256.00601"
               y="432.008"
               style="fill:#868491"
               width="64"
               height="16"
               id="rect491" />
          </g>
        </g>
        <g
           id="g501">
          <g
             id="g499">
            <rect
               x="192.002"
               y="400.008"
               style="fill:#5c546a"
               width="64"
               height="16"
               id="rect497" />
          </g>
        </g>
        <g
           id="g507">
          <g
             id="g505">
            <rect
               x="192.002"
               y="432.008"
               style="fill:#5c546a"
               width="64"
               height="16"
               id="rect503" />
          </g>
        </g>
      </g>
      <g
         id="g511" />
      <g
         id="g513" />
      <g
         id="g515" />
      <g
         id="g517" />
      <g
         id="g519" />
      <g
         id="g521" />
      <g
         id="g523" />
      <g
         id="g525" />
      <g
         id="g527" />
      <g
         id="g529" />
      <g
         id="g531" />
      <g
         id="g533" />
      <g
         id="g535" />
      <g
         id="g537" />
      <g
         id="g539" />
    </g>
    <path
       style="fill:#4d4d4d;fill-rule:evenodd;stroke-width:0.215869"
       d="M 63.411569,201.38109 C 60.743958,196.33116 57.640304,193.41507 48.569912,187.43634 32.360721,176.7521 19.354878,162.39436 11.690207,146.72313 2.9319743,128.81602 0.88039813,118.75663 1.6639514,97.561882 2.2119719,82.738188 2.8743014,78.707326 6.3144262,69.259628 11.54121,54.905186 17.59533,44.992586 28.089998,33.605806 47.691025,12.338568 72.581291,1.2971454 101.18867,1.1789398 c 17.96624,-0.074236 29.45155,2.5605219 45.84981,10.5180592 11.07979,5.376659 14.51588,7.947606 25.63446,19.18017 14.71743,14.868315 20.80996,25.060664 26.28922,43.979917 9.58052,33.080414 0.64495,69.857034 -23.10787,95.106424 -5.65964,6.01624 -15.01141,13.94206 -21.46641,18.19325 -9.1325,6.01456 -12.02958,8.75073 -14.37344,13.5751 l -2.93553,6.04222 h -8.30094 -8.30093 l 4.30085,-19.56663 c 2.36547,-10.76164 4.55226,-19.76058 4.85953,-19.99763 0.30727,-0.23705 3.58545,-2.16622 7.28485,-4.28704 15.01687,-8.60899 28.13788,-24.80665 33.09462,-40.85469 3.63379,-11.76488 3.64647,-30.60556 0.0285,-42.31233 -6.63969,-21.484091 -25.55835,-40.430483 -46.97728,-47.046113 -11.80834,-3.647227 -30.601293,-3.647227 -42.40964,0 -21.41892,6.61563 -40.337594,25.562022 -46.977286,47.046113 -3.617996,11.70677 -3.605311,30.54745 0.02849,42.31233 5.058017,16.37595 18.375056,32.59192 34.013459,41.41768 7.243022,4.08771 7.389769,4.29377 8.967288,12.59125 0.88207,4.63956 2.742888,13.44439 4.135151,19.5663 l 2.531388,11.13076 -8.286204,-0.004 -8.286196,-0.004 z"
       id="path1223"
       transform="matrix(0.26458333,0,0,0.26458333,55.551661,137.86567)" />
    <path
       style="fill:#c8b7b7;fill-rule:evenodd;stroke-width:0.215869"
       d="M 64.729985,161.1177 C 43.160557,147.01468 32.194599,127.04315 32.194599,101.86327 c 0,-26.19361 12.893555,-48.256311 35.823124,-61.298448 21.674459,-12.328241 51.229127,-11.245433 72.020717,2.638654 20.69972,13.822748 31.4935,33.927221 31.4935,58.659794 0,20.7134 -8.01346,38.94796 -22.86965,52.03974 -6.43731,5.67278 -17.49612,12.79162 -18.42627,11.86148 -0.28202,-0.28202 2.15601,-12.65021 5.41784,-27.48486 6.56775,-29.86979 7.14049,-35.39276 3.80313,-36.67343 -2.97618,-1.14206 -6.46606,1.23394 -6.99104,4.75968 -0.25699,1.72591 -2.30085,3.76634 -5.10609,5.09751 -2.57266,1.22081 -5.28507,3.35478 -6.02757,4.74215 -1.92752,3.60161 -4.90638,3.1263 -9.55772,-1.52504 -5.74392,-5.74392 -14.078691,-5.74392 -19.822606,0 -2.226151,2.22615 -4.748084,4.04754 -5.604295,4.04754 -0.856212,0 -3.378145,-1.82139 -5.604296,-4.04754 -2.226151,-2.22615 -4.801975,-4.04755 -5.724054,-4.04755 -0.922079,0 -2.54499,-1.97318 -3.606469,-4.38484 -1.436212,-3.26306 -2.792874,-4.38484 -5.302916,-4.38484 -2.697358,0 -3.460291,0.76208 -3.808985,3.80472 -0.345216,3.01233 8.407299,47.4454 11.409267,57.92037 0.978155,3.41313 -0.678548,2.95734 -8.980231,-2.47066 z"
       id="path1262"
       transform="matrix(0.26458333,0,0,0.26458333,55.551661,137.86567)" />
    <path
       style="fill:#c8b7b7;fill-rule:evenodd;stroke-width:0.215869"
       d="M 64.240662,159.89126 C 45.873973,147.18416 36.746709,132.75126 33.569868,111.39169 30.416354,90.188957 37.656487,68.679067 53.167777,53.167777 79.30397,27.031586 120.86457,25.965221 148.30045,50.726856 c 33.33789,30.088347 28.99939,84.095244 -8.76943,109.164764 -4.12212,2.73611 -7.71985,4.74965 -7.99496,4.47454 -0.2751,-0.2751 1.89117,-11.95761 4.81395,-25.96111 2.92277,-14.00351 5.31413,-28.1059 5.31413,-31.33865 0,-5.39875 -0.27997,-5.87773 -3.4357,-5.87773 -2.32097,0 -4.14186,1.20382 -5.61213,3.71026 -2.4411,4.16146 -12.95376,12.47993 -15.77181,12.47993 -1.00848,0 -2.66686,-1.00474 -3.68528,-2.23277 -1.01842,-1.22802 -3.87692,-3.07931 -6.35222,-4.11399 -5.25734,-2.19757 -11.843676,-0.65389 -15.783157,3.69919 -3.767147,4.16265 -6.356681,3.22872 -15.336987,-5.53135 -9.269813,-9.04248 -12.704026,-9.83731 -13.361348,-3.09241 -0.330178,3.38803 6.63829,41.82005 10.041058,55.37775 1.030805,4.10706 -0.248305,3.85614 -8.125904,-1.59402 z"
       id="path1338"
       transform="matrix(0.26458333,0,0,0.26458333,55.551661,137.86567)" />
    <path
       style="fill:#c8b7b7;fill-rule:evenodd;stroke-width:0.215869"
       d="m 93.513658,171.42622 c -3.850234,-0.44768 -7.267216,-1.10418 -7.593294,-1.4589 -0.326079,-0.35471 -2.525543,-9.75192 -4.887698,-20.88267 -2.362156,-11.13076 -4.641833,-21.452 -5.06595,-22.9361 -0.768588,-2.68951 -0.761317,-2.68961 2.214316,-0.0307 4.817675,4.30494 12.534844,3.58065 17.96914,-1.68647 2.470804,-2.3948 5.041698,-4.35418 5.713098,-4.35418 0.67139,0 3.24228,1.95938 5.71309,4.35418 5.43429,5.26712 13.15146,5.99141 17.96914,1.68647 2.97562,-2.65892 2.98297,-2.65882 2.23518,0.0307 -0.41264,1.4841 -2.73305,11.97436 -5.15646,23.31169 -4.85842,22.72894 -3.72937,21.16294 -16.03882,22.24583 -3.33922,0.29375 -9.221508,0.16782 -13.071742,-0.27985 z"
       id="path1377"
       transform="matrix(0.26458333,0,0,0.26458333,55.551661,137.86567)" />
    <path
       style="fill:#c8b7b7;fill-rule:evenodd;stroke-width:0.215869"
       d="m 90.015339,190.572 c -2.034832,-9.46114 -3.692489,-17.50564 -3.683682,-17.87666 0.02094,-0.88215 31.045513,-0.88215 31.052703,0 0.003,0.37102 -1.62069,8.41552 -3.60827,17.87666 l -3.61377,17.20208 h -8.22364 -8.223646 z"
       id="path1416"
       transform="matrix(0.26458333,0,0,0.26458333,55.551661,137.86567)" />
  </g>
</svg>
