<?xml version="1.0" encoding="utf-8"?>
<!-- Uploaded to: SVG Repo, www.svgrepo.com, Generator: SVG Repo Mixer Tools -->
<svg width="800px" height="800px" viewBox="-39.41 0 445.199 445.199" xmlns="http://www.w3.org/2000/svg"><defs><style>.a{fill:#3f88c9;}.b{fill:#ffffff;}.c{fill:#7a7473;}.d{fill:#211715;}.e{fill:#645d5c;}</style></defs><path class="a" d="M215.252,248.273a436.674,436.674,0,0,1-18.367,46.205,33.709,33.709,0,0,0-3.071,8.421c-.581,3.436-.042,6.951.5,10.394q6.157,39.294,12.314,78.589c4.79-1.265,18.636-5.306,23.651-6.572-.592-11.259-2.813-35.548-4.741-49.185-.747-5.289-1.894-11.642-.888-16.889a39.188,39.188,0,0,1,5-13.755c11.637-20,27.508-40.618,39.145-60.615"/><path class="b" d="M121.067,50.05a40.67,40.67,0,0,0,2.007,8.669c1.382,5.31,3.316,12.676-.739,16.691a5.091,5.091,0,0,0-1.577,2.9c-.387,2.959,2.21,3.476,4.053,4.576a8.37,8.37,0,0,1,2.829,2.883c.983,2.8,3.67,8.964,6.484,11.859a10.482,10.482,0,0,0,7.027,3.487c4.413.293,10.333-1.427,14.961-2.359,2.667-.444,4.861-.639,7.27.343a8.854,8.854,0,0,1,1.765.97c2.406,1.692,4.038,4.468,5.508,7.1,1.925,3.442,4.125,6.964,6.05,10.406l.176.316c.2-.608.408-1.213.617-1.816,2.573-7.437,8.3-19.231,12.97-27.706-.242-.72-.272-1.39-.492-2.18-1.33-4.7,1.62-9.99,3.44-14.33a53.117,53.117,0,0,0,2.01-27.13c-3.61-17.95-14.64-25.85-22.55-28.32a43.851,43.851,0,0,0-33.18,2.55c-9.19,4.48-20.51,14.32-18.63,31.1"/><path class="b" d="M193.075,83.79c-4.889,8.222-12.5,23.373-15.577,32.278a29.529,29.529,0,0,0-1.974,8.126,29.52,29.52,0,0,0,.928,7.5l5.734,27.069c2.37,10.222,13.037,30.139,15.074,35.376-.331,1.768,5.047,12.592,9.982,15.19,22.919,6.872,49.776,13.547,73.7,13.76,6.518.3,5.333-7.407,3.407-15.259-1.037-6.963-6.105-20.564-6.889-22.222L272.8,178.5c-4.667-10-5.872-14.027-12.045-27.563C248.308,123.643,227.52,98.9,193.075,83.79"/><path class="c" d="M195.752,62.125a49.59,49.59,0,0,0-.329-17.406c-3.6-17.946-14.633-25.846-22.544-28.313a43.827,43.827,0,0,0-33.185,2.55c-8.722,4.247-19.368,13.328-18.814,28.592,5.984-.559,12.146-1.141,12.146-1.141,6.935-.414,12.257,1.547,17.137,4.2,4.579,2.487,7.628,9.155,10.924,8.79a9.55,9.55,0,0,1,3.091-6.034A4.863,4.863,0,0,1,168.4,52.4c2.179.621,3.412,2.942,3.917,5.15a14.254,14.254,0,0,1-1.532,10.944c4.7,4.184,11.538,10.15,19.1,12.844.611-3.28,2.323-6.595,3.53-9.482A59.2,59.2,0,0,0,195.752,62.125Z"/><path class="d" d="M170.839,71.736c5.265,4.595,10.843,8.887,17.369,11.521a2.415,2.415,0,0,0,2.952-1.676,2.458,2.458,0,0,0-1.676-2.952,43.783,43.783,0,0,1-8.3-4.723,84.521,84.521,0,0,1-6.95-5.564,2.459,2.459,0,0,0-3.394,0,2.422,2.422,0,0,0,0,3.394Z"/><path class="d" d="M133.026,48.807a29.017,29.017,0,0,1,16.07,3.952c3.953,2.263,5.935,7.62,10.488,8.891,2.98.832,4.252-3.8,1.276-4.629-.622-.174.355.231-.257-.081a4.622,4.622,0,0,1-.624-.39s-.573-.5-.778-.7c-.857-.832-1.635-1.741-2.434-2.627a22.328,22.328,0,0,0-6.21-5.12,33.81,33.81,0,0,0-17.531-4.091c-3.073.162-3.092,4.963,0,4.8Z"/><path class="d" d="M164,57.672c.58-1.539,2.025-3.327,3.616-3a2.409,2.409,0,0,1,1.52,1.256,8.481,8.481,0,0,1,1,2.891c.858,4.394-.713,8.183-3.723,11.567a2.456,2.456,0,0,0,0,3.394,2.422,2.422,0,0,0,3.394,0,20.416,20.416,0,0,0,4.891-8.541,17.249,17.249,0,0,0-.367-9.4c-1.069-3.153-3.51-6.05-7.108-6-3.939.052-6.562,3.135-7.852,6.551a2.421,2.421,0,0,0,1.676,2.953A2.454,2.454,0,0,0,164,57.672Z"/><path class="d" d="M118.667,50.05a62.777,62.777,0,0,0,2.174,9.621,39.505,39.505,0,0,1,1.44,6.99c.194,2.163.223,4.718-1.172,6.534a15.688,15.688,0,0,0-2.128,2.828,6.387,6.387,0,0,0-.425,4.481c.743,2.487,3.04,3.262,5.044,4.452,1.974,1.172,2.344,3.164,3.229,5.18,2.187,4.977,5.106,10.317,10.391,12.489,2.96,1.217,6.142.992,9.243.547,3.468-.5,6.858-1.4,10.287-2.105a2.4,2.4,0,1,0-1.276-4.628c-2.807.574-5.586,1.286-8.406,1.8-2.256.409-4.812.854-7.073.277-4.684-1.2-7.09-6.471-8.884-10.491-.915-2.05-1.482-4.051-3.129-5.688a11.337,11.337,0,0,0-2.926-2.04,5.519,5.519,0,0,1-1.975-1.227c.2.265.016-.177.043-.4a2.471,2.471,0,0,1,.55-1.188,17.132,17.132,0,0,0,2.081-2.683,13.958,13.958,0,0,0,1.4-7.066c-.245-6.113-2.973-11.664-3.684-17.677a2.475,2.475,0,0,0-2.4-2.4,2.415,2.415,0,0,0-2.4,2.4Z"/><path class="d" d="M123.466,50.052A26.925,26.925,0,0,1,125.4,36.038a28.6,28.6,0,0,1,7.25-9.595,41.33,41.33,0,0,1,35.969-8.705c1.346.308,2.686.666,4,1.1q.483.16.959.338c.13.049.26.1.39.15s.263.105.394.159c-.209-.09-.235-.1-.076-.032a28.435,28.435,0,0,1,8.074,5.287c6.884,6.408,10.6,15.833,11.416,25.09A54.459,54.459,0,0,1,191.4,70.274c-.916,3.072-2.65,5.852-3.5,8.966a17.593,17.593,0,0,0,.252,9.76c.846,2.965,5.479,1.7,4.629-1.276a13.226,13.226,0,0,1,.114-8.4c.938-2.812,2.421-5.405,3.282-8.241a57.284,57.284,0,0,0,2.5-19.719c-.6-10.565-4.4-21.4-11.92-29.032-14.338-14.551-39.72-13.037-55.215-1.148a34,34,0,0,0-9.872,11.554,31.185,31.185,0,0,0-3.009,17.317,2.471,2.471,0,0,0,2.4,2.4,2.415,2.415,0,0,0,2.4-2.4Z"/><path class="b" d="M210.7,392.079c.637,6.434-4.689,13.114-9.809,15.578s-10.844,4.081-14.932,8.028c-2.788,2.69-4.421,7.623-1.551,10.227,2.122,1.925,5.417,1.419,8.213.794,11.531-2.58,21.865-4.154,33.4-6.733,2.8-.627,7.186-2.563,8.337-5.192a12.758,12.758,0,0,0-.3-9.328c-1.817-3.869-2.756-10.742-3.872-16.649"/><path class="d" d="M208.3,392.079c.327,4.032-1.706,7.757-4.5,10.539-2.954,2.941-6.939,4.187-10.672,5.836-4,1.764-8.166,3.992-10.652,7.722-2.182,3.275-2.988,8.137,0,11.2,3.528,3.621,8.913,2.032,13.2,1.109,5.051-1.087,10.128-2.046,15.2-3.011,5.187-.986,10.379-1.972,15.53-3.137,3.556-.8,7.783-2.592,9.752-5.848a12.027,12.027,0,0,0,1.3-6.828,15.736,15.736,0,0,0-.635-3.662c-.321-1.017-.822-1.964-1.17-2.972-1.65-4.78-2.231-9.915-3.16-14.865a2.422,2.422,0,0,0-2.952-1.677,2.452,2.452,0,0,0-1.677,2.953c.79,4.206,1.389,8.468,2.485,12.61.905,3.42,2.828,6.462,2.249,10.136a4.189,4.189,0,0,1-1.833,3.128,14.256,14.256,0,0,1-4.539,2.124c-4.433,1.263-9.1,1.967-13.62,2.836-4.644.891-9.294,1.752-13.928,2.691-2.361.479-4.712,1-7.067,1.5-1.533.327-3.457.754-4.951.082-2.754-1.237-.844-5.224.64-6.813,2.733-2.927,6.7-4.5,10.313-6.033a40.651,40.651,0,0,0,5.961-2.8,21.154,21.154,0,0,0,4.782-4.159c2.97-3.5,5.12-7.98,4.739-12.668a2.461,2.461,0,0,0-2.4-2.4,2.419,2.419,0,0,0-2.4,2.4Z"/><path class="d" d="M212.938,247.635q-4.54,13.614-9.955,26.914-2.68,6.578-5.588,13.06c-1.891,4.222-4.282,8.424-5.505,12.9-1.3,4.775-.489,9.611.261,14.4l2.309,14.735,4.618,29.471,5.234,33.4a2.425,2.425,0,0,0,2.952,1.676c7.909-2.1,15.72-4.56,23.651-6.572a2.424,2.424,0,0,0,1.762-2.314c-.882-16.583-2.491-33.239-4.807-49.683-.712-5.058-1.85-10.447-.945-15.55a40.487,40.487,0,0,1,4.8-13.385c5.665-9.805,12.046-19.189,18.39-28.561,7.135-10.54,14.34-21.053,20.755-32.054,1.559-2.674-2.587-5.093-4.145-2.423-11.528,19.77-25.555,37.941-37.334,57.554a51.491,51.491,0,0,0-6.3,13.927,36.354,36.354,0,0,0-1.226,7.883,53.306,53.306,0,0,0,.6,8.426c1.155,8.688,2.283,17.387,3.159,26.22.912,9.2,1.761,18.415,2.252,27.646L229.639,383c-7.931,2.012-15.742,4.477-23.651,6.571l2.952,1.677-9.12-58.205-2.27-14.49c-.728-4.644-1.94-9.516-1.514-14.24.392-4.346,2.849-8.416,4.619-12.315q2.944-6.491,5.681-13.073,6.163-14.793,11.231-30.01c.979-2.937-3.655-4.2-4.629-1.276Z"/><path class="b" d="M175.593,126.687c-.053-.563-.083-1.128-.084-1.694a75.59,75.59,0,0,0-4.825,16.963c-.712,4.734-1.569,9.526-3.688,13.819-1.844,3.735-4.57,6.947-7.2,10.173q-9.011,11.04-16.951,22.9c4.326,4.065,7.26,6.428,10.9,11.116.112-.112.221-.223.331-.335l6.26-6.389c3.7-9.06,11.612-17.754,18.425-26.1,1.391-1.7,2.808-3.4,4.1-5.179l-6.411-30.264A43.855,43.855,0,0,1,175.593,126.687Z"/><path class="b" d="M140.188,190.8a12.562,12.562,0,0,1,2.626-1.979c4.8,4.513,7.887,6.925,12.113,12.716a9.75,9.75,0,0,1-3.341,2.014c-2.963.959-6.157-.153-9.271-.216a17.085,17.085,0,0,0-9.4,2.9c-3.078-1.6-6.631-3.475-9.366-3.7a10.191,10.191,0,0,0-5.247,1c-.312-4.762,3.756-6.1,7.249-6.182,2.529-.061,5.152.308,7.524-.573C135.993,195.688,137.907,192.955,140.188,190.8Z"/><path class="d" d="M173.192,124.361a83.5,83.5,0,0,0-4.17,13.347c-.95,4.5-1.335,9.089-2.758,13.488-1.408,4.351-4.036,7.988-6.9,11.5-3.054,3.748-6.066,7.525-8.973,11.388q-5,6.642-9.625,13.552a2.417,2.417,0,0,0,.375,2.908c3.806,3.568,7.674,6.992,10.9,11.116a2.413,2.413,0,0,0,3.394,0,2.462,2.462,0,0,0,0-3.394c-3.228-4.124-7.095-7.548-10.9-11.116l.376,2.908q8.208-12.239,17.565-23.621c3.013-3.689,5.858-7.411,7.652-11.861,1.758-4.364,2.315-8.981,3.128-13.576a80.011,80.011,0,0,1,4.561-15.361,2.419,2.419,0,0,0-1.677-2.953,2.457,2.457,0,0,0-2.952,1.677Z"/><path class="d" d="M142.275,186.418a18.3,18.3,0,0,0-5.426,4.35c-1.449,1.528-2.947,3.3-5.05,3.894-2.716.762-5.68.076-8.464.5a8.932,8.932,0,0,0-6.471,3.952c-1.632,2.633,2.519,5.046,4.145,2.423,1-1.606,3.277-1.78,4.985-1.795,3-.026,5.944.2,8.75-1.084,4.01-1.84,5.981-6.279,9.954-8.093a2.419,2.419,0,0,0,.861-3.284,2.457,2.457,0,0,0-3.284-.861Z"/><path class="c" d="M214.926,371.878c0-50.742,40.581-70.945,74.523-70.945s74.523,21.347,74.523,70.945-40.58,70.945-74.523,70.945-74.523-20.2-74.523-70.945"/><path class="b" d="M228.952,371.878c0-41.192,32.943-57.592,60.5-57.592s60.5,17.329,60.5,57.592S317,429.47,289.449,429.47s-60.5-16.4-60.5-57.592"/><path class="d" d="M231.352,371.878c.033-12.922,3.635-25.921,12.125-35.764,7.31-8.475,17.181-14.055,27.848-16.988a67.619,67.619,0,0,1,31.49-1.066c10.968,2.293,21.36,7.223,29.405,15.053a51.791,51.791,0,0,1,15.118,33.317c1.04,13.358-1.714,26.981-9.656,37.953-6.574,9.083-16.45,15.6-26.928,19.149a67.183,67.183,0,0,1-31.546,2.783c-10.893-1.687-21.479-5.842-29.846-12.873a50.6,50.6,0,0,1-17.215-30.994,66.427,66.427,0,0,1-.795-10.57c-.008-3.088-4.808-3.094-4.8,0,.035,14.1,4.041,27.964,13.249,38.828,7.761,9.156,18.629,15.334,30.116,18.516a72.71,72.71,0,0,0,34.174,1.1,63.961,63.961,0,0,0,31.73-16.489c9.836-9.676,15.2-22.671,16.3-36.326,1.14-14.147-1.884-28.936-10.3-40.559-7.3-10.087-17.816-17.239-29.531-21.264a71.971,71.971,0,0,0-34.364-2.874,65.231,65.231,0,0,0-31.965,14.107,54.735,54.735,0,0,0-18.5,33.458,74.7,74.7,0,0,0-.911,11.5c-.008,3.089,4.792,3.093,4.8,0Z"/><path class="d" d="M297.52,358.769q6.974-14.471,14.515-28.658c1.449-2.727-2.693-5.155-4.145-2.423q-7.54,14.184-14.515,28.659a2.464,2.464,0,0,0,.861,3.283,2.421,2.421,0,0,0,3.284-.861Z"/><path class="d" d="M294.95,387.648c6.109,9.093,11.786,18.553,17.36,27.981,1.571,2.657,5.722.245,4.145-2.423-5.575-9.428-11.251-18.887-17.36-27.981-1.714-2.551-5.874-.151-4.145,2.423Z"/><path class="d" d="M305,379.983c8.835,3.347,17.54,7.163,26.167,11.013a2.474,2.474,0,0,0,3.283-.861,2.418,2.418,0,0,0-.861-3.284c-9-4.018-18.091-8-27.313-11.5a2.419,2.419,0,0,0-2.953,1.676A2.454,2.454,0,0,0,305,379.983Z"/><path class="d" d="M217.326,371.878c.033-16.008,4.494-32.09,14.994-44.327,9.045-10.542,21.338-17.52,34.585-21.173a83.8,83.8,0,0,1,39.167-1.329c13.62,2.848,26.549,9.01,36.532,18.755,11.194,10.927,17.483,25.727,18.707,41.3,1.3,16.575-2.128,33.524-11.993,47.132-8.2,11.317-20.458,19.409-33.542,23.829A82.673,82.673,0,0,1,296,440.162a85.269,85.269,0,0,1-19.462-.713c-13.46-2.108-26.546-7.291-36.913-16.019-11.694-9.846-18.89-23.476-21.327-38.564a82.437,82.437,0,0,1-.97-12.988c-.007-3.088-4.807-3.094-4.8,0,.035,17.233,4.933,34.231,16.212,47.5,9.489,11.165,22.735,18.7,36.758,22.59a88.939,88.939,0,0,0,41.852,1.367c14.438-3.02,28.3-9.8,38.857-20.193,11.988-11.806,18.545-27.656,19.891-44.31,1.4-17.364-2.3-35.479-12.633-49.738-8.929-12.316-21.826-21.052-36.145-25.944a88.074,88.074,0,0,0-41.789-3.514c-14.307,2.195-28.185,7.937-39.3,17.3a66.976,66.976,0,0,0-22.617,41.029,90.828,90.828,0,0,0-1.086,13.917c-.007,3.089,4.793,3.093,4.8,0Z"/><path class="c" d="M2.4,371.878c0-50.742,40.581-70.945,74.523-70.945s74.524,21.347,74.524,70.945-40.581,70.945-74.524,70.945S2.4,422.62,2.4,371.878"/><path class="b" d="M16.426,371.878c0-41.192,32.943-57.592,60.5-57.592s60.5,17.329,60.5,57.592-32.944,57.592-60.5,57.592-60.5-16.4-60.5-57.592"/><path class="d" d="M18.826,371.878c.033-12.922,3.635-25.921,12.125-35.764,7.31-8.475,17.181-14.055,27.849-16.988a67.615,67.615,0,0,1,31.489-1.066c10.968,2.293,21.361,7.223,29.405,15.053a51.786,51.786,0,0,1,15.118,33.317c1.04,13.358-1.714,26.981-9.655,37.953-6.575,9.083-16.451,15.6-26.928,19.149a67.185,67.185,0,0,1-31.546,2.783c-10.893-1.687-21.48-5.842-29.847-12.873a50.6,50.6,0,0,1-17.215-30.994,66.427,66.427,0,0,1-.795-10.57c-.008-3.088-4.808-3.094-4.8,0,.036,14.1,4.041,27.964,13.25,38.828,7.76,9.156,18.628,15.334,30.115,18.516a72.71,72.71,0,0,0,34.174,1.1,63.961,63.961,0,0,0,31.73-16.489c9.836-9.676,15.2-22.671,16.3-36.326,1.14-14.147-1.884-28.936-10.3-40.559-7.3-10.087-17.816-17.239-29.53-21.264a71.976,71.976,0,0,0-34.365-2.874,65.224,65.224,0,0,0-31.964,14.107,54.732,54.732,0,0,0-18.505,33.458,74.7,74.7,0,0,0-.911,11.5c-.008,3.089,4.792,3.093,4.8,0Z"/><path class="d" d="M90.429,380.669q15.575,7.5,30.843,15.62c2.726,1.45,5.154-2.692,2.422-4.144q-15.266-8.115-30.842-15.621a2.465,2.465,0,0,0-3.284.861,2.422,2.422,0,0,0,.861,3.284Z"/><path class="d" d="M61.55,378.1c-9.093,6.109-18.552,11.785-27.981,17.36-2.657,1.571-.245,5.722,2.423,4.145,9.428-5.575,18.887-11.251,27.981-17.36,2.551-1.714.151-5.874-2.423-4.145Z"/><path class="d" d="M69.215,388.147c-3.347,8.836-7.163,17.541-11.012,26.167a2.475,2.475,0,0,0,.861,3.284,2.417,2.417,0,0,0,3.283-.861c4.018-9,8-18.091,11.5-27.314a2.42,2.42,0,0,0-1.677-2.952,2.454,2.454,0,0,0-2.952,1.676Z"/><path class="d" d="M4.8,371.878c.033-16.008,4.5-32.09,14.994-44.327,9.045-10.542,21.338-17.52,34.585-21.173a83.8,83.8,0,0,1,39.167-1.329c13.62,2.848,26.549,9.01,36.532,18.755,11.194,10.927,17.483,25.727,18.707,41.3,1.3,16.575-2.127,33.524-11.993,47.132-8.2,11.317-20.458,19.409-33.542,23.829a82.663,82.663,0,0,1-19.778,4.095,85.257,85.257,0,0,1-19.461-.713c-13.46-2.108-26.547-7.291-36.913-16.019C15.4,413.584,8.207,399.954,5.77,384.866a82.556,82.556,0,0,1-.97-12.988c-.006-3.088-4.806-3.094-4.8,0,.035,17.233,4.933,34.231,16.212,47.5,9.49,11.165,22.735,18.7,36.758,22.59a88.939,88.939,0,0,0,41.852,1.367c14.438-3.02,28.3-9.8,38.857-20.193,11.988-11.806,18.545-27.656,19.892-44.31,1.4-17.364-2.3-35.479-12.634-49.738-8.928-12.316-21.825-21.052-36.144-25.944A88.078,88.078,0,0,0,63,299.637c-14.307,2.195-28.184,7.937-39.3,17.3A66.976,66.976,0,0,0,1.086,357.961,90.954,90.954,0,0,0,0,371.878c-.006,3.089,4.794,3.093,4.8,0Z"/><path class="b" d="M240.3,285.413c2.091-6.68,4.135-13.252,6.075-19.515l-16.967-2.7c-1.111,3.556-3.444,11.334-4.555,14.889-21.489-6.211-82.1-23.369-101.949-28.9,3.7-12.023,6.739-22.033,8.563-28.219l-13.2-4.038c-7.78,26.39-37.327,121.136-46.2,146.709l13.2,4.038c5.537-15.96,18.951-58.305,30.2-94.478,9.584,15.771,44.548,70.248,65.9,101.489l30.483-4.139c4.256-12.269,13.236-40.363,22.245-69.047,14.132,22.033,33.548,51.465,46.462,70.364l11.555-7.556C278.9,344.5,255.892,309.563,240.3,285.413Zm-43.892,81.044-7.648-4.815c-18.58-27.851-52.537-80.027-62.58-96.3,18.954,5.228,75.713,21.068,93.988,26.361C211.331,319.925,200.559,354.491,196.408,366.457Z"/><path class="d" d="M283.442,371.878c0-.254.021-.506.028-.76.02-.734-.111.383.034-.309.092-.438.21-.857.344-1.284.03-.1.191-.411,0-.008.089-.184.179-.366.28-.543s.213-.335.318-.5c.159-.22.151-.213-.023.019.081-.1.166-.195.253-.29.215-.234.451-.441.687-.654-.423.382.021-.013.115-.076.154-.105.313-.2.475-.3.269-.156.546-.293.829-.422-.553.251.013.007.116-.028q.348-.122.705-.214c.3-.077.593-.131.892-.188.6-.115-.53.023.076,0,.177-.008.354-.027.531-.034q.443-.015.885.01c.181.01.36.03.541.046-.677-.063.132.034.269.063.3.065.605.144.9.239.179.057.354.125.532.187-.557-.2.02.012.12.061a8.353,8.353,0,0,1,.989.568c.106.071.21.145.313.22-.475-.349.167.167.249.246.14.135.266.284.4.42.439.433-.228-.389.114.133.186.283.348.576.523.866.33.547-.115-.422.1.2.07.207.142.411.2.622q.075.272.13.549c.024.113.045.227.062.341-.032-.247-.032-.221,0,.076.018.507.018,1,0,1.509-.027.754.057-.231-.018.191-.034.188-.071.375-.117.56-.053.214-.114.426-.185.635-.026.076-.318.688-.077.213a10.727,10.727,0,0,1-.614,1.052c-.342.521.325-.3-.114.132-.138.137-.264.286-.4.421s-.287.258-.433.384c.36-.311.124-.089.029-.026-.321.209-.637.415-.977.591q-.253.13-.514.244c.549-.24-.1.02-.219.06a9.728,9.728,0,0,1-.991.268c-.181.038-.363.067-.545.1.637-.112.041-.012-.086,0-.3.023-.592.031-.888.026-.177,0-.353-.011-.529-.024-.119-.008-.237-.019-.356-.032.341.05.375.055.1.013-.359-.069-.716-.137-1.069-.237q-.267-.075-.528-.165c-.117-.04-.232-.083-.347-.128q.43.188.062.023c-.333-.171-.664-.337-.979-.54q-.237-.151-.461-.321c.482.365-.149-.159-.231-.239s-.18-.18-.266-.274-.172-.191-.253-.29c.174.233.182.239.023.02-.1-.169-.219-.331-.318-.5-.036-.064-.351-.7-.241-.448.142.327-.11-.319-.106-.306a7.947,7.947,0,0,1-.23-.856c-.008-.04-.105-.777-.057-.291-.033-.334-.045-.668-.049-1a2.4,2.4,0,0,0-4.8,0,10.519,10.519,0,0,0,2.384,6.782,10.371,10.371,0,0,0,5.121,3.169,11.7,11.7,0,0,0,11.215-2.667A10.632,10.632,0,0,0,298.5,365.97a11.351,11.351,0,0,0-11.109-4.308,10.725,10.725,0,0,0-5.918,2.937,10.313,10.313,0,0,0-2.835,7.279,2.4,2.4,0,0,0,4.8,0Z"/><path class="d" d="M294.184,363.1q-20.537-30.787-40.722-61.811-5.562-8.531-11.089-17.085l.242,1.85q3.051-9.753,6.074-19.515c.917-2.957-3.715-4.222-4.628-1.276q-2.069,6.677-4.149,13.349-.516,1.655-1.033,3.31c-.355,1.137-1.1,2.617-.936,3.813a6.718,6.718,0,0,0,1.316,2.489l1.439,2.223q6.024,9.3,12.09,18.582,12.577,19.255,25.266,38.438,5.978,9.037,11.986,18.056c1.706,2.557,5.865.157,4.144-2.423Z"/><path class="d" d="M70.916,371.878c0-.254.021-.506.028-.76.02-.734-.111.383.034-.309.092-.438.21-.857.344-1.284.031-.1.191-.411,0-.008.088-.184.178-.366.279-.543s.213-.335.318-.5c.159-.22.151-.213-.023.019.082-.1.166-.195.253-.29.215-.234.451-.441.687-.654-.423.382.021-.013.115-.076.155-.105.313-.2.475-.3.269-.156.546-.293.829-.422-.553.251.014.007.116-.028.232-.081.468-.152.7-.214.3-.077.593-.131.893-.188.6-.115-.531.023.075,0,.178-.008.354-.027.531-.034q.443-.015.885.01c.181.01.36.03.541.046-.676-.063.132.034.269.063.3.065.605.144.9.239.179.057.354.125.532.187-.557-.2.02.012.12.061a8.353,8.353,0,0,1,.989.568c.106.071.21.145.313.22-.475-.349.167.167.249.246.14.135.266.284.4.42.439.433-.228-.389.115.133.186.283.348.576.522.866.33.547-.115-.422.1.2.07.207.142.411.2.622q.075.272.13.549c.024.113.045.227.063.341-.033-.247-.033-.221,0,.076.018.507.018,1,0,1.509-.027.754.057-.231-.018.191-.034.188-.071.375-.117.56-.053.214-.114.426-.185.635-.026.076-.317.688-.076.213a11.144,11.144,0,0,1-.614,1.052c-.343.521.324-.3-.115.132-.138.137-.264.286-.4.421s-.286.258-.432.384c.36-.311.123-.089.028-.026a11.27,11.27,0,0,1-.977.591q-.254.13-.514.244c.549-.24-.1.02-.219.06a9.659,9.659,0,0,1-.991.268c-.181.038-.363.067-.545.1.637-.112.042-.012-.085,0-.3.023-.593.031-.889.026-.177,0-.353-.011-.529-.024-.119-.008-.237-.019-.356-.032.341.05.375.055.1.013-.36-.069-.717-.137-1.07-.237-.177-.05-.354-.1-.528-.165-.116-.04-.232-.083-.347-.128q.43.188.062.023c-.333-.171-.664-.337-.979-.54-.157-.1-.312-.208-.461-.321.482.365-.149-.159-.231-.239s-.18-.18-.266-.274-.171-.191-.253-.29c.174.233.182.239.023.02-.105-.169-.219-.331-.318-.5-.036-.064-.351-.7-.241-.448.143.327-.11-.319-.106-.306a7.947,7.947,0,0,1-.23-.856c-.008-.04-.105-.777-.057-.291-.033-.334-.045-.668-.049-1a2.4,2.4,0,1,0-4.8,0A10.519,10.519,0,0,0,68.5,378.66a10.371,10.371,0,0,0,5.121,3.169,11.7,11.7,0,0,0,11.215-2.667,10.631,10.631,0,0,0,1.142-13.192,11.351,11.351,0,0,0-11.109-4.308,10.728,10.728,0,0,0-5.918,2.937,10.313,10.313,0,0,0-2.835,7.279,2.4,2.4,0,1,0,4.8,0Z"/><path class="d" d="M115.954,216.29c-2.195,7.443-4.467,14.864-6.741,22.284q-4.852,15.832-9.782,31.643Q93.959,287.8,88.417,305.352q-5.09,16.124-10.266,32.219c-2.524,7.828-5.054,15.657-7.711,23.441q-.341.995-.684,1.987c-1.014,2.925,3.621,4.182,4.629,1.276,2.518-7.265,4.886-14.583,7.254-21.9q5.085-15.7,10.047-31.445,5.551-17.55,11.029-35.124,5.047-16.187,10.033-32.394c2.435-7.926,4.865-15.855,7.228-23.8q.3-1.021.606-2.045c.876-2.969-3.755-4.237-4.628-1.276Z"/><path class="d" d="M190.832,360.431q-13.341-20-26.452-40.155-13.322-20.4-26.487-40.9c-3.241-5.064-6.481-10.129-9.641-15.245l-2.71,3.526q17.451,4.814,34.883,9.7,21.126,5.9,42.236,11.853,8.439,2.387,16.869,4.809l-1.676-2.952c-6.672,21.3-13.261,42.633-20.146,63.868-1.179,3.635-2.363,7.27-3.614,10.882-1.013,2.925,3.622,4.181,4.629,1.276,6.354-18.343,11.93-36.974,17.732-55.5q3.015-9.627,6.027-19.254a2.434,2.434,0,0,0-1.676-2.953c-11.447-3.314-22.924-6.523-34.4-9.745q-21.177-5.946-42.371-11.841-8.607-2.394-17.219-4.775a2.426,2.426,0,0,0-2.71,3.526c6.625,10.728,13.508,21.3,20.357,31.886q14.016,21.663,28.2,43.218,6.984,10.615,14.025,21.192c1.706,2.558,5.865.157,4.144-2.422Z"/><path class="d" d="M129.153,220.328c-2.781,9.428-5.673,18.824-8.563,28.219a2.432,2.432,0,0,0,1.676,2.952q18.569,5.177,37.11,10.446,22.941,6.488,45.871,13.02,9.487,2.706,18.968,5.436a2.445,2.445,0,0,0,2.952-1.677c1.546-4.954,3.01-9.934,4.556-14.889.922-2.955-3.71-4.22-4.629-1.276-1.545,4.955-3.01,9.935-4.555,14.889l2.952-1.676q-19.122-5.526-38.28-10.93-22.766-6.465-45.543-12.885-9.061-2.551-18.126-5.086l1.676,2.952c2.89-9.4,5.782-18.791,8.563-28.219.876-2.969-3.755-4.237-4.628-1.276Z"/><path class="d" d="M214.164,371.185c5.769-16.647,11.008-33.486,16.327-50.281q2.971-9.38,5.918-18.766l-4.387.573q18.227,28.41,37.043,56.437,4.683,6.981,9.419,13.927c1.732,2.536,5.894.137,4.145-2.422-12.373-18.112-24.45-36.429-36.412-54.815q-5.049-7.76-10.05-15.549a2.432,2.432,0,0,0-4.387.573C225.619,320.479,219.446,340.1,213,359.621c-1.135,3.436-2.279,6.869-3.464,10.288-1.013,2.925,3.622,4.182,4.629,1.276Z"/><path class="d" d="M183.44,373.475c-9.834-14.4-19.416-28.965-28.935-43.57q-13.818-21.2-27.377-42.568c-3.226-5.1-6.45-10.2-9.584-15.351a2.429,2.429,0,0,0-4.386.573q-6.718,21.594-13.54,43.155-5.9,18.637-11.947,37.229c-1.542,4.708-3.094,9.413-4.716,14.094-1.014,2.925,3.622,4.182,4.629,1.276,3.3-9.528,6.376-19.136,9.461-28.735q6.617-20.58,13.074-41.21,3.851-12.261,7.667-24.533l-4.386.573c6.659,10.954,13.61,21.734,20.533,32.522q14.714,22.926,29.727,45.658,7.743,11.7,15.635,23.309c1.732,2.536,5.893.138,4.145-2.422Z"/><path class="c" d="M125.458,217.192c-3.377-.466-6.867-.971-9.757-2.778s-5.025-5.292-4.175-8.592c.951-3.695,5.254-5.675,9.056-5.365s9.185,3.822,12.688,5.334c8.486,3.663,13.2,5.486,21.348,8.647a17.781,17.781,0,0,1,5.5,3.4,4.944,4.944,0,0,1,.294,5.58,5.42,5.42,0,0,1-5.281,1.921,163.335,163.335,0,0,1-29.675-8.145"/><path class="c" d="M272.148,240.451a334.553,334.553,0,0,0-50.794,4.6c-3.18.534-6.859,1.507-8.065,4.5-.915,2.271.068,4.962,1.8,6.7a16.858,16.858,0,0,0,6.362,3.551,100.37,100.37,0,0,0,44.893,5.551c1.835-.193,3.779-.487,5.177-1.692,1.706-1.469,2.157-3.9,2.364-6.143a54.685,54.685,0,0,0-.793-15.527"/><path class="d" d="M126.1,214.878c-3.522-.488-7.773-.895-10.43-3.535-1.95-1.937-2.818-5.035-.438-7,5.051-4.163,11.665,1.167,16.417,3.334,6.958,3.171,14.139,5.892,21.265,8.657a20.611,20.611,0,0,1,4.389,2.251c1.036.722,1.655,1.42,1.406,2.788-.518,2.854-5.488,1.225-7.262.868a162.839,162.839,0,0,1-25.347-7.366,2.42,2.42,0,0,0-2.953,1.676,2.454,2.454,0,0,0,1.677,2.953,161.048,161.048,0,0,0,26.151,7.525c2.208.427,4.477,1,6.727.623a6.944,6.944,0,0,0,5.079-3.543,7.606,7.606,0,0,0,.3-5.916c-.789-2.073-2.645-3.389-4.5-4.477-3.732-2.191-8.108-3.439-12.121-5.033-4.061-1.612-8.119-3.253-12.112-5.027-3.669-1.63-7.072-3.905-10.944-5.07a12.278,12.278,0,0,0-11.079,1.97,9.015,9.015,0,0,0-1.4,12.573c3.3,4.5,8.672,5.651,13.9,6.375a2.483,2.483,0,0,0,2.952-1.677,2.417,2.417,0,0,0-1.676-2.952Z"/><path class="d" d="M272.148,238.051a336.716,336.716,0,0,0-33.785,2.187q-8.608,1-17.163,2.417c-4.06.68-8.638,2-10.225,6.257-1.842,4.942,2.035,9.637,6.228,11.705a70.137,70.137,0,0,0,14.629,4.824A102.679,102.679,0,0,0,263.585,268c2.77-.215,5.875-.283,8.343-1.711a9.061,9.061,0,0,0,4.081-6.628,52.654,52.654,0,0,0-.608-18.313,2.423,2.423,0,0,0-2.952-1.676,2.45,2.45,0,0,0-1.676,2.952,53.128,53.128,0,0,1,.748,14.418c-.131,1.572-.278,3.686-1.566,4.791-1.38,1.183-3.738,1.143-5.451,1.292a98.164,98.164,0,0,1-28.021-1.568,99.4,99.4,0,0,1-13.532-3.761c-2.841-1.011-8.2-2.871-7.592-6.847.47-3.1,5.772-3.449,8.086-3.828q7.313-1.2,14.674-2.058a336.859,336.859,0,0,1,34.029-2.215c3.086-.046,3.095-4.846,0-4.8Z"/><path class="c" d="M202.291,435.682c-.407-1.875-1.247-5.788-1.687-7.787a1.16,1.16,0,0,1,.88-1.387c3.706-.834,23.327-5.288,27.146-6.15a1.161,1.161,0,0,1,1.391.886c.423,1.887,1.274,5.724,1.666,7.491a1.16,1.16,0,0,1-.862,1.388c-3.779.9-23.419,5.557-27.122,6.443A1.163,1.163,0,0,1,202.291,435.682Z"/><path class="b" d="M176.68,388.072c0-14.519,11.611-20.3,21.323-20.3s21.324,6.108,21.324,20.3-11.612,20.3-21.324,20.3-21.323-5.781-21.323-20.3"/><path class="d" d="M204.605,435.044q-.493-2.274-.983-4.548-.233-1.074-.466-2.149c-.158-.725.024-1.163-.609-.183-.674,1.044-.535.6-.063.577a14.51,14.51,0,0,0,2.244-.507l3.087-.7,15.694-3.559a41.5,41.5,0,0,0,5.388-1.22,1.488,1.488,0,0,0,.169-.039l.052-.011q.892-.184-1.411-.824a2.949,2.949,0,0,0,.177.791l.549,2.469q.269,1.209.538,2.418l.235,1.061c.015.068.037.351.088.4.215.186.812-1.18.8-1.184-.419-.127-1.535.365-1.958.465l-3.02.717-7.653,1.817-8.643,2.052-3.453.821-1.3.31a5.143,5.143,0,0,0-.522.124c-1.019.361.444-.8,1.066.906a2.462,2.462,0,0,0-2.952-1.676,2.418,2.418,0,0,0-1.676,2.952c.809,2.225,2.683,2.961,4.9,2.433q1.316-.315,2.633-.627l8.5-2.02,9.161-2.174c2.052-.487,4.175-.864,6.2-1.472,2.455-.739,2.97-2.854,2.468-5.115q-.629-2.826-1.257-5.652a5.268,5.268,0,0,0-1.143-2.688,3.723,3.723,0,0,0-3.492-.951c-.807.152-1.607.364-2.408.545q-8.736,1.98-17.471,3.961c-2.373.538-4.834.939-7.17,1.623a3.675,3.675,0,0,0-2.6,2.614,7.67,7.67,0,0,0,.374,3.451q.659,3.036,1.313,6.072C200.631,439.337,205.259,438.06,204.605,435.044Z"/><path class="b" d="M201.54,403.77c3.5,9.231,10.384,27.116,10.834,28.011,1.238,2.46,3.868,3.994,6.426,3.081,3.574-1.275,3.049-4.794,2.478-6.394-.835-2.337-9.217-23.615-11.983-30.523"/><path class="d" d="M179.08,388.072c.03-4.218,1.183-8.52,3.949-11.656a18.186,18.186,0,0,1,9.108-5.468c6.705-1.81,14.678-.485,19.867,4.583,5.962,5.823,6.613,16.362,1.71,23.141a17.812,17.812,0,0,1-8.589,6.1,22.094,22.094,0,0,1-5.265,1.127,24.238,24.238,0,0,1-2.641.061q-.661-.021-1.321-.078c-.177-.015-.355-.032-.532-.05.015,0-.793-.1-.429-.051a19.486,19.486,0,0,1-10.922-5.021c-3.42-3.307-4.9-7.905-4.935-12.687-.022-3.088-4.822-3.1-4.8,0a21.457,21.457,0,0,0,16.448,21.716c8.541,2.357,18.523.414,24.874-5.984,7.272-7.324,8.276-20.352,2.257-28.756-5.453-7.612-15.16-10.683-24.2-9.313a23.946,23.946,0,0,0-13.142,6.354c-4.3,4.22-6.2,10.05-6.239,15.983-.022,3.089,4.778,3.092,4.8,0Z"/><path class="b" d="M192.216,355.422c2.55,6.99,9.08,26.77,9.85,29.13.52,1.62.94,5.15-2.67,6.32-2.59.83-5.17-.78-6.33-3.28-.42-.89-7.06-19.85-10.35-29.35"/><path class="d" d="M209.392,404.64c3.185,8.061,6.565,16.081,9.487,24.242a7.427,7.427,0,0,1,.416,1.557c-.056-.44-.009.594-.023.748.036-.412-.016.094-.049.2-.137.432.015.163-.181.467a2.277,2.277,0,0,1-1.636.871,3.109,3.109,0,0,1-2.527-1.4c-.148-.2-.266-.671-.464-.828-.282-.222.251.626.054.129-.214-.537-.432-1.072-.645-1.609q-1.046-2.643-2.069-5.295-3.2-8.261-6.364-16.539a2.47,2.47,0,0,0-2.953-1.676,2.418,2.418,0,0,0-1.676,2.952q3.1,8.123,6.246,16.232c.772,1.99,1.543,3.98,2.331,5.964a13.678,13.678,0,0,0,2.146,4.064,7.453,7.453,0,0,0,8.856,2.084,6.525,6.525,0,0,0,3.745-6.092,12.029,12.029,0,0,0-1.007-4.244c-.685-1.8-1.385-3.584-2.084-5.374q-3.466-8.873-6.974-17.73a2.473,2.473,0,0,0-2.953-1.676,2.417,2.417,0,0,0-1.676,2.952Z"/><path class="d" d="M189.9,356.06c3.353,9.211,6.368,18.553,9.434,27.863.156.475.328.949.466,1.43.062.215.107.433.158.651.1.436.024.086.029.224a7.169,7.169,0,0,1,.008.816c0,.015-.053.4-.012.159.044-.258-.1.342-.116.4a1.019,1.019,0,0,1-.489.652,2.451,2.451,0,0,1-1.732.428,2.964,2.964,0,0,1-1.361-.68c-.219-.184-1.3-1.329-1.16-1.643-.059.128.313.8.076.153-.1-.264-.2-.527-.293-.791-.285-.778-.564-1.558-.843-2.338q-1.274-3.56-2.524-7.128-3.279-9.315-6.512-18.647c-1-2.9-5.644-1.654-4.629,1.276q3.129,9.035,6.3,18.053,1.359,3.864,2.732,7.722c.492,1.376.924,2.812,1.55,4.136a7.693,7.693,0,0,0,10.113,3.966c3.168-1.489,4.144-4.9,3.467-8.129a39.166,39.166,0,0,0-1.328-4.176q-1.262-3.815-2.535-7.625c-2.013-6.028-4-12.071-6.174-18.043a2.465,2.465,0,0,0-2.953-1.676,2.42,2.42,0,0,0-1.676,2.952Z"/><path class="c" d="M170.83,352.505c.6,1.859,1.854,5.736,2.487,7.722A1.181,1.181,0,0,0,174.8,361c3.692-1.157,23.253-7.245,27.059-8.434a1.184,1.184,0,0,0,.773-1.491c-.591-1.878-1.8-5.693-2.354-7.45a1.183,1.183,0,0,0-1.469-.784c-3.789,1.136-23.47,7.055-27.185,8.164A1.185,1.185,0,0,0,170.83,352.505Z"/><path class="d" d="M168.516,353.143q.863,2.682,1.73,5.363c.678,2.106,1.235,4.755,3.936,4.919a8.557,8.557,0,0,0,3-.657q1.722-.538,3.444-1.074,8.93-2.784,17.859-5.564c2.219-.691,5.838-1.164,6.484-3.8.448-1.823-.726-4.115-1.27-5.837-.557-1.762-.912-4.377-2.543-5.466-2.082-1.389-5.122.135-7.285.785l-8.758,2.631-9.982,3-3.373,1.012c-2.284.683-3.695,2.159-3.246,4.684a2.42,2.42,0,0,0,2.952,1.676,2.454,2.454,0,0,0,1.676-2.952c.082.462-1.338,1.384-.53,1.347a2.078,2.078,0,0,0,.424-.127l1.131-.339,2.911-.874,7.614-2.286q6.915-2.079,13.83-4.155c.164-.049.72-.115.828-.249.154-.19,1.709.74-.612-.365-1.145-.544-.644-.471-.591.031a6.413,6.413,0,0,0,.358,1.132q.744,2.349,1.485,4.7a3.244,3.244,0,0,0,.289.916c.55.6.338-1.592.844-1.314a1.058,1.058,0,0,0-.21.065,4.208,4.208,0,0,0-.994.311l-2.708.843-15.371,4.789q-3.384,1.054-6.767,2.11a3.22,3.22,0,0,0-.913.285c1.969-1.644,1.429,1.484,1.306.393a3.188,3.188,0,0,0-.183-.571l-.465-1.447q-.837-2.6-1.676-5.193C172.2,348.938,167.566,350.19,168.516,353.143Z"/><path class="b" d="M183.969,310.729c.822,4.128-.7,8.584-3.189,12.149,2.171,1.688,6.336,1.475,9.03,1.056,4.27-.664,12.937-1.982,14.877-9.69q-1.475-3.735-2.6-7.594"/><path class="b" d="M168.424,350.7a14.9,14.9,0,0,0,2.862-.574c12-3.947,21.012-6.979,33.856-11.179a10.5,10.5,0,0,0,6.358-6.536c.877-2.695-.662-5.512-2.03-8a87.887,87.887,0,0,1-4.783-10.173c-1.939,7.709-10.607,9.027-14.877,9.691-2.695.419-6.859.632-9.028-1.055a19.459,19.459,0,0,1-5.622,5.445c-5.19,3.155-11.109,5.472-15.047,10.1-2.684,3.153-3.907,8.571-.583,11.041C161.346,350.812,165.306,351.052,168.424,350.7Z"/><path class="d" d="M181.655,311.367c.738,4.05-1.246,8.4-3.819,11.434-2.915,3.439-7.006,5.164-10.848,7.35-3.864,2.2-8.055,4.93-10.233,8.946-1.928,3.552-2.585,8.587.6,11.66,2.842,2.74,7.7,2.751,11.366,2.306a31.824,31.824,0,0,0,6.212-1.615q3.663-1.207,7.323-2.422,6.939-2.3,13.88-4.6,3.893-1.286,7.789-2.562a15.88,15.88,0,0,0,6.557-3.486,11.526,11.526,0,0,0,3.656-7.19c.188-3.041-1.419-5.815-2.818-8.39a86.281,86.281,0,0,1-6.924-16.79c-.873-2.956-5.507-1.7-4.629,1.276a93.309,93.309,0,0,0,5.52,14.263c1.075,2.217,2.432,4.327,3.407,6.588a5.178,5.178,0,0,1-.405,5.42,8.117,8.117,0,0,1-4.487,3.3q-3.641,1.191-7.277,2.39-6.594,2.174-13.183,4.363c-4.364,1.447-8.722,3.13-13.158,4.335a16.821,16.821,0,0,1-4.777.491,9.824,9.824,0,0,1-4.27-.792,3.069,3.069,0,0,1-1.209-2.978,8.462,8.462,0,0,1,1.677-4.306c2.513-3.389,6.639-5.455,10.251-7.423a46.725,46.725,0,0,0,5.894-3.5,23.44,23.44,0,0,0,5.015-5.234,18.793,18.793,0,0,0,3.517-14.122,2.422,2.422,0,0,0-2.953-1.676,2.453,2.453,0,0,0-1.676,2.952Z"/><path class="d" d="M179.822,325.133c2.742,1.707,6.293,1.68,9.391,1.287a43.42,43.42,0,0,0,6.4-1.22c5.289-1.5,9.917-4.784,11.391-10.319.795-2.988-3.834-4.263-4.629-1.276-1.087,4.081-4.481,5.992-8.279,7.034a40.578,40.578,0,0,1-4.922.98c-2.108.3-4.978.582-6.927-.631-2.63-1.637-5.042,2.514-2.423,4.145Z"/><path class="a" d="M276.245,223.239c3.625,10.161-4.353,21.5-14.378,25.482s-21.276,2.612-31.968,1.178c-14.876-2-25.339.37-40.214-1.626,4.112,10.905,6.759,20.1,8.057,24.517a248.7,248.7,0,0,1,6.8,33.147c-4.445,1.777-17.159,6.08-24.58,6.631-9.967-21.485-19.888-46.319-29.86-67.815-3.274-7.057-6.277-16.2-.975-21.9,2.925-3.142,7.479-4.025,11.712-4.742l48.239-8.169"/><path class="d" d="M273.93,223.877c1.806,5.25.215,10.645-3.02,14.986a24.817,24.817,0,0,1-14.788,9.115c-6.967,1.57-14.264.993-21.29.155-3.688-.44-7.356-1-11.064-1.248-3.468-.233-6.944-.273-10.419-.244-7.917.067-15.792.267-23.664-.768a2.409,2.409,0,0,0-2.315,3.038,271,271,0,0,1,12.06,41.175c1.071,5.251,2,10.538,2.714,15.851l1.762-2.315c-3.595,1.431-7.291,2.633-11,3.726a65.8,65.8,0,0,1-12.941,2.82l2.072,1.188c-8.844-19.083-16.753-38.581-25.31-57.793-1.964-4.407-4.19-8.744-5.931-13.244-1.382-3.573-2.757-7.789-1.969-11.66.824-4.053,3.971-6.172,7.766-7.218,4.943-1.362,10.176-1.907,15.224-2.762l37.9-6.418a2.421,2.421,0,0,0,1.677-2.953,2.457,2.457,0,0,0-2.953-1.676l-34.948,5.918c-5.489.93-11.056,1.665-16.5,2.853-4.528.988-9.036,3.011-11.395,7.228-4.731,8.459.739,18.589,4.285,26.376,4.537,9.963,8.848,20.026,13.167,30.085,4.841,11.274,9.676,22.554,14.836,33.687a2.325,2.325,0,0,0,2.072,1.189,69.764,69.764,0,0,0,13.871-2.891c3.828-1.116,7.641-2.352,11.347-3.826.881-.351,1.909-1.215,1.762-2.314a256.089,256.089,0,0,0-9.8-43.429Q194.763,255,192,247.635l-2.314,3.038c7.45.979,14.911.871,22.406.781,3.667-.044,7.336-.034,11,.188,3.938.238,7.829.824,11.743,1.291,13.892,1.656,29.963,1.41,39.413-10.59,4.371-5.55,6.687-12.839,4.314-19.742-1-2.9-5.637-1.656-4.629,1.276Z"/><path class="d" d="M159.981,238.219l16.865,5.353a2.4,2.4,0,1,0,1.276-4.628l-16.865-5.353a2.4,2.4,0,0,0-1.276,4.628Z"/><path class="b" d="M162.665,190.857l-8.591,8.769c-1.559,1.59-3.2,3.236-5.322,3.922-2.963.959-6.158-.153-9.272-.216-4.307-.087-10.691,2.5-14.018,5.237a28.715,28.715,0,0,0-6.666,8.593c-.613,1.069-1.815,5.667,1.963,6.37a3.259,3.259,0,0,0,2.926-1.259c-.528.75-2,5.7,1.629,7.148a3.525,3.525,0,0,0,4.408-1.814c-.556,1.925-.262,5.756,3.518,6.3a3.062,3.062,0,0,0,2.556-1.074,33.88,33.88,0,0,0,3.74-5.185,4.176,4.176,0,0,0,1.038,5.74c.546.456,2.608.525,4.148-.74a21,21,0,0,0,3.963-4.482,9.074,9.074,0,0,1,7.125-5.18,13.212,13.212,0,0,0,3.615-1.026c2-.94,3.006-3.153,4.093-5.083a61.9,61.9,0,0,1,10.262-13.688"/><path class="d" d="M124.608,224.451a8.086,8.086,0,0,0,2.143-2.547c.706-1.063,1.4-2.13,2.157-3.16.339-.463-.3.364-.016.022.078-.094.154-.19.233-.284.165-.193.337-.381.52-.557.645-.622,1.332-1.208,2.013-1.79.321-.274.645-.546.973-.812.2-.16.4-.317.593-.474.394-.315-.335.245.1-.08.683-.506,1.373-1,2.086-1.461a2.4,2.4,0,1,0-2.422-4.144,43.788,43.788,0,0,0-4.352,3.258,22.152,22.152,0,0,0-3.261,3.1c-.879,1.112-1.668,2.285-2.448,3.468-.3.451-.593.9-.905,1.346-.055.079-.113.155-.167.234-.218.318.459-.525.13-.169a1.5,1.5,0,0,0-.124.14c-.232.312.521-.361.32-.234a2.4,2.4,0,1,0,2.423,4.144Z"/><path class="d" d="M160.968,189.16l-6.529,6.664c-1.695,1.73-3.349,3.806-5.477,5.021-2.3,1.317-5.224.484-7.7.215a18.975,18.975,0,0,0-6.868.57,26.485,26.485,0,0,0-12.574,7.055,32.682,32.682,0,0,0-4.336,5.942,11.191,11.191,0,0,0-1.695,4.5,6.159,6.159,0,0,0,1.769,5.456c2.451,2.154,5.627,1.5,7.82-.618l-3.77-2.908a8.441,8.441,0,0,0-.135,8.112c2.413,4.036,8.079,3.524,10.317-.356l-4.387-1.85c-.851,3.191.14,7.053,3.265,8.614a5.671,5.671,0,0,0,6.6-.83,27.323,27.323,0,0,0,4.341-5.9l-4.145-2.423a6.8,6.8,0,0,0-.4,6.318,5.452,5.452,0,0,0,3.915,3.255c4.182.594,7.593-3.184,9.63-6.4a8.653,8.653,0,0,1,2.731-3.243A15.445,15.445,0,0,1,157.951,225a9.282,9.282,0,0,0,5.232-3.071,41.341,41.341,0,0,0,3.17-5.164,59.006,59.006,0,0,1,9.124-11.88c2.192-2.182-1.2-5.576-3.394-3.394a62.208,62.208,0,0,0-7.4,8.961q-1.612,2.353-3.024,4.834a16.607,16.607,0,0,1-2.47,3.931c-1.058,1.015-2.641,1.182-4.018,1.454a13.265,13.265,0,0,0-4.258,1.55c-2.8,1.676-3.867,4.561-5.967,6.874a10.151,10.151,0,0,1-1.913,1.816,2.375,2.375,0,0,1-.918.36c.082-.013-.346.033-.29.017-.373.106-.122-.088-.121,0,0,.021.553.524.05-.086a2.316,2.316,0,0,1-.416-.6,1.973,1.973,0,0,1,.27-1.75c1.459-2.721-2.539-5.073-4.145-2.423a34.294,34.294,0,0,1-2.518,3.709c-.694.867-1.1,1.648-2.1,1.168-.419-.2-.355-.221-.535-.47-.3-.417-.2-.324-.344-.907-.038-.147-.068-.541-.039-.195-.02-.234-.012-.463-.016-.7,0-.083.094-.77,0-.227.034-.192.079-.38.129-.568.7-2.611-3.012-4.234-4.387-1.85-.323.562-.794.977-1.385.819a1.086,1.086,0,0,1-.642-.436c.183.227-.173-.34-.18-.356.123.289-.014-.144-.041-.247-.021-.08-.077-.59-.045-.219a5.7,5.7,0,0,1-.013-.613c0-.2.015-.4.037-.6-.037.342,0,.021.035-.146.075-.316.181-.627.251-.943.114-.506-.246.355.091-.17,1.5-2.337-1.842-4.773-3.769-2.909-.44.425-.776.651-1.1.515-.243-.1-.217-.231-.172-.1-.037-.109-.112-.377-.05-.034-.026-.147-.1-.285-.124-.434-.077-.491-.019-.134-.011-.04a3.666,3.666,0,0,1-.012-.457c0-.129.117-.967.023-.47.05-.266.109-.529.185-.788.117-.4.26-.589.062-.242,1.9-3.321,3.945-6.674,7.194-8.852a22.337,22.337,0,0,1,10.544-3.922c2.271-.137,4.5.449,6.755.562a10.973,10.973,0,0,0,6.924-1.847,42.927,42.927,0,0,0,5.8-5.425l6.358-6.489c2.163-2.208-1.228-5.6-3.394-3.394Z"/><path class="d" d="M131.609,229.114c.68-1.166,1.309-2.36,2-3.52.162-.272.327-.542.5-.807a6,6,0,0,0,.494-.712c-.05.112-.29.343-.081.116.092-.1.181-.2.273-.3.249-.268.5-.533.752-.8.851-.9,1.711-1.791,2.611-2.642q.636-.6,1.3-1.17.354-.3.718-.6c.1-.08.2-.158.3-.237.507-.4-.395.3.131-.1a2.632,2.632,0,0,0,1.1-1.435,2.457,2.457,0,0,0-.242-1.849,2.425,2.425,0,0,0-3.284-.861,48.638,48.638,0,0,0-6.027,5.494,19.136,19.136,0,0,0-2.537,3.226c-.751,1.236-1.42,2.521-2.149,3.77a2.4,2.4,0,0,0,4.145,2.423Z"/><path class="d" d="M141.238,229.336c.388-.616.812-1.207,1.256-1.783l-.376.486a45.817,45.817,0,0,1,4.3-4.735,2.4,2.4,0,1,0-3.394-3.4,38.834,38.834,0,0,0-5.931,7,2.421,2.421,0,0,0,.861,3.283,2.449,2.449,0,0,0,3.283-.861Z"/><path class="b" d="M205.335,112.345c-5.619,2.246-9.6,7.476-11.832,13.1s-2.953,11.712-3.852,17.7c-.712,4.734-1.57,9.526-3.689,13.819-1.844,3.735-4.57,6.947-7.2,10.173-6.007,7.36-13.074,16.915-16.951,22.9,3.877,4.24,8.766,9.129,13.654,14.24,3.152.179,14.656-5.881,20.988-10.833,2.707-2.117,6.508-5.041,8.434-7.887A330.843,330.843,0,0,0,231.091,139.2"/><path class="d" d="M204.7,110.03A24.047,24.047,0,0,0,192.6,121.638c-3.022,5.925-4.037,12.517-5,19.024-.935,6.354-1.923,12.693-5.493,18.176a90.222,90.222,0,0,1-5.684,7.376q-2.9,3.581-5.688,7.248c-3.824,5-7.576,10.08-11.008,15.36a2.442,2.442,0,0,0,.375,2.908c2.639,2.879,5.363,5.678,8.084,8.479q2.277,2.344,4.547,4.695c.791.822,1.486,1.717,2.72,1.769a7.01,7.01,0,0,0,1.5-.15,26.925,26.925,0,0,0,6.613-2.474,83.84,83.84,0,0,0,8.2-4.491,82.194,82.194,0,0,0,7.706-5.462,35.5,35.5,0,0,0,7.744-7.719c4.635-6.836,8.987-13.87,13.082-21.042q6.957-12.183,12.863-24.924a2.469,2.469,0,0,0-.862-3.283,2.419,2.419,0,0,0-3.283.861,332.916,332.916,0,0,1-18.837,34.971q-2.583,4.174-5.29,8.272c-.806,1.22-1.573,2.509-2.48,3.656a26.1,26.1,0,0,1-3.308,3.324,75.891,75.891,0,0,1-12.261,8.694,71.64,71.64,0,0,1-7.248,3.706,25.781,25.781,0,0,1-2.6.961c-.351.1-.712.171-1.062.274-.179.052-.571.037.067.006-.182.009-.359.026-.542.02l1.7.7c-4.547-4.749-9.21-9.392-13.654-14.24l.376,2.908c2.888-4.443,6.014-8.735,9.2-12.971,3.6-4.789,7.485-9.346,11.113-14.108a36.188,36.188,0,0,0,4.823-8.2,43.684,43.684,0,0,0,2.451-9.078c1.132-6.45,1.634-13.052,3.788-19.28,1.832-5.3,5.345-10.73,10.72-12.952a2.478,2.478,0,0,0,1.676-2.952,2.415,2.415,0,0,0-2.952-1.677Z"/><path class="d" d="M191,82.579a224.72,224.72,0,0,0-12.459,24.469,76.525,76.525,0,0,0-4.865,13.293c-1.41,6.136.519,12.276,1.79,18.274l4.4,20.785c.639,3.02,5.267,1.742,4.628-1.276l-3.788-17.885q-.948-4.471-1.895-8.943c-.578-2.732-1.187-5.507-.78-8.311.629-4.34,2.566-8.685,4.295-12.694,1.829-4.239,3.82-8.407,5.9-12.528,2.179-4.319,4.449-8.6,6.916-12.762,1.58-2.663-2.568-5.08-4.144-2.422Z"/><path class="d" d="M194.84,194.273a11.253,11.253,0,0,0,1.239,4.225,38.067,38.067,0,0,0,2.6,4.912,32.839,32.839,0,0,0,3.975,5.281,11.619,11.619,0,0,0,5.4,3.383c11.331,3.369,22.767,6.425,34.349,8.807a209.965,209.965,0,0,0,35.086,4.533c2.311.078,4.884.415,7.042-.606a6.487,6.487,0,0,0,3.38-4.351c1.156-4.472-.471-9.133-1.279-13.506a96.777,96.777,0,0,0-3.605-13.165,91.362,91.362,0,0,0-3.489-9.391,2.42,2.42,0,0,0-3.284-.861,2.456,2.456,0,0,0-.861,3.284c.041.088.241.544.054.112-.2-.457.082.207.125.315.22.551.432,1.1.641,1.66q.848,2.251,1.63,4.528c1.284,3.712,2.5,7.465,3.429,11.281.428,1.747.726,3.518,1.13,5.269a37.823,37.823,0,0,1,1.034,6.122c.032.515.047,1.032.033,1.548-.006.2-.051.9-.033.765a3.719,3.719,0,0,1-.6,1.795,1.106,1.106,0,0,1-.6.366,12.49,12.49,0,0,1-3.009.083c-21.8-.47-43.36-5.592-64.225-11.562q-2.109-.6-4.212-1.223a10.277,10.277,0,0,1-3.262-1.2c-.341-.249.205.168-.137-.108-.215-.174-.42-.362-.621-.551-.357-.334-.695-.685-1.023-1.047a23.006,23.006,0,0,1-1.86-2.361,39.393,39.393,0,0,1-3.109-5.335c-.191-.394-.377-.792-.547-1.195.145.345-.039-.1-.072-.191-.064-.167-.128-.333-.188-.5-.11-.314-.195-.631-.292-.949-.222-.735-.027.33-.032-.161-.029-3.087-4.829-3.094-4.8,0Z"/><path class="d" d="M191.864,85.862A130.151,130.151,0,0,1,235.08,116.2a127.19,127.19,0,0,1,14.5,18.99,173.631,173.631,0,0,1,11.4,22.085c3.3,7.456,6.283,15.018,9.737,22.433a2.42,2.42,0,0,0,3.284.861,2.454,2.454,0,0,0,.861-3.284c-6.566-14.092-11.733-28.945-19.869-42.45a131.829,131.829,0,0,0-33.622-37.383,136.473,136.473,0,0,0-27.091-15.733,2.476,2.476,0,0,0-3.283.861,2.416,2.416,0,0,0,.861,3.283Z"/><path class="d" d="M229.369,274.833c.77.17,1.538.345,2.3.531a1.812,1.812,0,0,0,.957.042,1.783,1.783,0,0,0,.892-.284,1.817,1.817,0,0,0,.674-.619,1.8,1.8,0,0,0,.429-.816l.086-.638a2.385,2.385,0,0,0-.328-1.211l-.375-.486a2.4,2.4,0,0,0-1.059-.617q-1.149-.278-2.3-.53a1.812,1.812,0,0,0-.957-.043,1.774,1.774,0,0,0-.892.285,2.69,2.69,0,0,0-1.1,1.434l-.086.638a2.4,2.4,0,0,0,.328,1.211l.375.486a2.4,2.4,0,0,0,1.059.617Z"/><path class="d" d="M156.75,101.067c2.008-.328,4.147-.535,6.039.382a11.115,11.115,0,0,1,4.247,4.292c1.272,2,2.374,4.109,3.576,6.151,1.349,2.291,2.719,4.569,4.02,6.887,1.513,2.694,5.661.277,4.145-2.423-1.429-2.545-2.941-5.041-4.415-7.559a78.326,78.326,0,0,0-4.137-6.882,14.27,14.27,0,0,0-6.2-5.134c-2.774-1.1-5.675-.811-8.546-.342a2.418,2.418,0,0,0-1.676,2.952,2.457,2.457,0,0,0,2.952,1.676Z"/><path class="d" d="M130.465,91.429a12.894,12.894,0,0,0,4.764-1.716,8.107,8.107,0,0,0,2.607-2.459,2.42,2.42,0,0,0-.861-3.283,2.452,2.452,0,0,0-3.284.861c-.054.085-.113.166-.174.246l.375-.486a5.461,5.461,0,0,1-.951.922l.486-.375a8.825,8.825,0,0,1-1.92,1.1l.573-.242a12.66,12.66,0,0,1-2.891.807,2.4,2.4,0,0,0-1.435,1.1,2.448,2.448,0,0,0-.241,1.849,2.421,2.421,0,0,0,1.1,1.434l.574.242a2.4,2.4,0,0,0,1.276,0Z"/><path class="d" d="M130.3,65.247c-.1,1.666,1.026,5.185,3.9,4.836,3.7-.889,2.9-5.273,1.182-7.021C133.977,61.63,130.815,61.637,130.3,65.247Z"/><path class="e" d="M353.579,136.1c-8.731-18.645-20.6-43.157-30.792-64.76a2.887,2.887,0,0,1,1.489-3.89h0a2.888,2.888,0,0,0,1.478-3.9c-3.2-6.7-6.428-13.45-9.548-20.026a2.873,2.873,0,0,0-3.725-1.415C300.964,47,237.768,74.39,218.209,82.654a2.846,2.846,0,0,0-1.474,3.827c14.067,30.233,33.451,69.883,44.476,93.979a2.852,2.852,0,0,0,3.7,1.439c19.154-8.041,69.028-29.861,88.883-38.285a2.873,2.873,0,0,0,1.486-3.863Q354.454,137.966,353.579,136.1Z"/><path class="a" d="M172.834,4.354c-1.87.142-3.512.264-4.809.355L159.669,6.28c-5.905,1.11-11.913,2.255-17.225,5.065-5.288,2.8-9.606,7.1-13.688,11.473-7.116,7.623-13.858,15.146-15.532,25.328a3.936,3.936,0,0,0,2.827,4.356,11.3,11.3,0,0,0,2.392.258q8.55.174,17.1-.015c27.85.33,31.821-4.729,56.432-16.9,2.74-1.355,4.755-7.364,4.164-11.944-.387-3,7.625-13.579,9.568-18.541a2.161,2.161,0,0,0-2.024-2.953C197.725,2.435,182.335,3.637,172.834,4.354Z"/><path class="d" d="M187.256,131.232c.028.4.053.8.08,1.2l4.1-1.7c-2.757-3.545-2.49-8.921-2.123-13.132a33.326,33.326,0,0,1,4.217-13.24,22.569,22.569,0,0,1,1.589-2.448c.226-.305-.242.275.184-.226.185-.217.367-.436.556-.65q.642-.72,1.345-1.382a22.1,22.1,0,0,1,7.02-4.359,37.838,37.838,0,0,1,14.5-2.166c3.09.069,3.089-4.731,0-4.8-8.687-.193-17.766,1.577-24.434,7.5-5.787,5.138-8.793,13.216-9.666,20.718-.7,6.043-.446,12.608,3.423,17.583,1.272,1.635,4.232.268,4.1-1.7-.027-.4-.052-.8-.08-1.2a2.457,2.457,0,0,0-2.4-2.4,2.421,2.421,0,0,0-2.4,2.4Z"/><path class="d" d="M203.733,115.819c-.282.224.418-.277.5-.332.307-.195.622-.378.942-.551a19.576,19.576,0,0,1,1.936-.92,33.435,33.435,0,0,1,5.224-1.615,22.871,22.871,0,0,1,4.836-.632,10.473,10.473,0,0,1,4.044.754c2.883.972,4.3,2.633,5.666,5.456,2.092,4.332,3.25,9.052,5.305,13.406,2.283,4.837,5.78,8.973,9.449,12.814,2.138,2.238,5.529-1.159,3.394-3.394a45.579,45.579,0,0,1-8.7-11.842c-2.152-4.566-3.3-9.548-5.623-14.043a13.6,13.6,0,0,0-7.764-6.868,19.827,19.827,0,0,0-11.043-.46c-4.057.816-8.293,2.234-11.566,4.833a2.414,2.414,0,0,0,0,3.394,2.458,2.458,0,0,0,3.394,0Z"/><path class="d" d="M227.389,148.139c5.552,4.332,13.169,5.3,20.007,5.293,3.089,0,3.094-4.8,0-4.8a41.013,41.013,0,0,1-9.933-1.061q-1.062-.261-2.1-.6c-.33-.107-.659-.221-.984-.342-.132-.049-.847-.336-.59-.225a17.543,17.543,0,0,1-1.788-.9q-.386-.22-.756-.463c-.131-.086-.82-.586-.457-.3a2.48,2.48,0,0,0-3.394,0,2.417,2.417,0,0,0,0,3.394Z"/><path class="d" d="M222.358,159.816a85.007,85.007,0,0,0,29.818,3.686,2.456,2.456,0,0,0,2.4-2.4,2.421,2.421,0,0,0-2.4-2.4,80.992,80.992,0,0,1-28.542-3.514c-2.968-.879-4.236,3.752-1.276,4.628Z"/><path class="d" d="M218.724,90.741c-17.886-.47-24.813,7.866-27.365,12.593a35.016,35.016,0,0,0-4.553,15.786c-.26,5.3.085,11.127,4.33,14.755a47.643,47.643,0,0,1,2.367-8.427,24.654,24.654,0,0,1,8.525-11.328c3.616-2.95,13.477-5.665,17.987-4.461,4.963,1.325,6.926,2.793,9.1,7.446s3.375,9.732,5.75,14.287a49.586,49.586,0,0,0,8.456,11.1C235.14,125.35,226.3,106.927,218.724,90.741Z"/><path class="d" d="M247.389,151.017c-7.832.032-14.6-1.641-18.307-4.575l-6.09,11.062a80.86,80.86,0,0,0,29.18,3.592Q249.861,156.207,247.389,151.017Z"/><path class="d" d="M355.652,134.886c-7.991-17.058-16.182-34.02-24.28-51.027-2.081-4.371-4.277-8.71-6.233-13.139-.217-.493-.353-.657.01-1.035a5.15,5.15,0,0,1,.764-.395,5.411,5.411,0,0,0,1.275-1.114c1.6-1.92,1.422-4.156.424-6.291-2.3-4.928-4.692-9.817-7.029-14.729q-.788-1.656-1.575-3.313a8.586,8.586,0,0,0-1.96-3.08A5.463,5.463,0,0,0,311.1,40.1c-7.855,3.336-15.682,6.741-23.517,10.122Q269.527,58.016,251.47,65.8q-15.489,6.675-31,13.3c-2.506,1.066-5.4,1.848-6.225,4.811-.626,2.235.632,4.238,1.542,6.188q1.322,2.829,2.649,5.654,5.707,12.146,11.5,24.251c7.551,15.832,15.159,31.637,22.625,47.51q2.4,5.1,4.763,10.2a29.772,29.772,0,0,0,2.179,4.537,5.283,5.283,0,0,0,6.052,1.951c2.38-.85,4.7-1.982,7.022-2.973q3.939-1.68,7.872-3.37,19.782-8.5,39.525-17.086c11.485-4.975,22.963-9.969,34.484-14.863a5.388,5.388,0,0,0,3.469-4.546c.186-2.259-1.349-4.514-2.274-6.49a2.42,2.42,0,0,0-3.284-.861,2.454,2.454,0,0,0-.861,3.284c.476,1.017.982,2.025,1.427,3.056.212.489.367.675-.037,1.024a5.724,5.724,0,0,1-1.432.63l-1.69.72q-3.592,1.533-7.179,3.078-8.739,3.757-17.468,7.542Q305.616,161.8,286.1,170.248q-8.137,3.51-16.287,6.991-1.644.7-3.289,1.4l-.789.334-.283.119a5.668,5.668,0,0,1-1.546.633c-.881.013-1.51-2.4-1.844-3.124q-1.053-2.283-2.115-4.563c-6.9-14.824-13.985-29.563-21.035-44.317q-5.672-11.87-11.317-23.752-2.728-5.757-5.438-11.523-1.28-2.724-2.552-5.452c-.186-.4-.867-1.4-.737-1.8s.6-.487.98-.65c9.125-3.937,18.279-7.808,27.407-11.737q17.651-7.6,35.291-15.22,13.583-5.862,27.171-11.713c1.206-.518,2.407-1.055,3.623-1.55.23-.094.307-.013.106-.025.126.007.3-.079.4.034a10.782,10.782,0,0,1,1.328,2.594q1.635,3.441,3.274,6.878,1.651,3.463,3.307,6.927c.534,1.118,1.085,2.228,1.6,3.353.245.533.475.779.022,1.155-.477.4-1.169.593-1.655,1.064a5.291,5.291,0,0,0-1.546,3.081c-.315,2.274,1.1,4.368,2.036,6.346,7.994,16.9,16.114,33.733,24.123,50.623q2.6,5.472,5.166,10.956a2.421,2.421,0,0,0,3.284.861A2.456,2.456,0,0,0,355.652,134.886Z"/><path class="d" d="M236.671,107.987c9.705-4.042,19.338-8.261,28.983-12.443q17.778-7.709,35.553-15.426,3.846-1.663,7.695-3.32,1.557-.669,3.115-1.334l1.343-.572.614-.261c.17-.072.926-.391.183-.077a2.483,2.483,0,0,0,1.676-2.953,2.414,2.414,0,0,0-2.952-1.676c-9.492,4-18.928,8.138-28.377,12.24q-17.853,7.752-35.717,15.481-3.937,1.7-7.88,3.382-1.614.688-3.23,1.373l-.325.137c-.283.12.437-.184.022-.009l-.677.285q-.649.273-1.3.544a2.48,2.48,0,0,0-1.676,2.952,2.415,2.415,0,0,0,2.952,1.677Z"/><path class="d" d="M248.57,95.879c1.393,3.061,2.762,6.112,4.4,9.054a2.425,2.425,0,0,0,3.284.861,2.45,2.45,0,0,0,.861-3.284c-1.637-2.942-3.006-5.993-4.4-9.054a2.411,2.411,0,0,0-1.434-1.1,2.4,2.4,0,0,0-2.711,3.526Z"/><path class="d" d="M293.783,76.786c1.322,2.9,2.621,5.8,4.174,8.591a2.4,2.4,0,0,0,4.145-2.422c-1.554-2.792-2.853-5.687-4.174-8.592a2.413,2.413,0,0,0-1.435-1.1,2.4,2.4,0,0,0-2.71,3.526Z"/><path class="d" d="M154.03,96.453c2.7-14.37,3.353-30.813-.9-44.563a58.935,58.935,0,0,0,7.28-1.46c2.49,14.736,1.431,41.941-3.87,50.712l-3.61.6Q153.52,99.156,154.03,96.453Z"/><path class="a" d="M172.834,4.354c-1.87.142-3.512.264-4.809.355L159.669,6.28c-5.905,1.11-11.913,2.255-17.225,5.065-5.288,2.8-9.606,7.1-13.688,11.473-7.116,7.623-13.858,15.146-15.532,25.328a3.936,3.936,0,0,0,2.827,4.356,11.3,11.3,0,0,0,2.392.258q8.55.174,17.1-.015c27.85.33,31.821-4.729,56.432-16.9,2.74-1.355,4.755-7.364,4.164-11.944-.387-3,7.625-13.579,9.568-18.541a2.161,2.161,0,0,0-2.024-2.953C197.725,2.435,182.335,3.637,172.834,4.354Z"/><path class="d" d="M158.092,51.07a114.018,114.018,0,0,1,1.168,20.415A104.455,104.455,0,0,1,157.128,92.3a42.141,42.141,0,0,1-1.222,4.43c-.113.332-.234.662-.358.99-.053.141-.109.28-.165.419.127-.315.017-.033-.056.125a17.809,17.809,0,0,1-.863,1.67l1.434-1.1-3.61.6,2.953,2.952c3.772-16.541,5.224-34.685.2-51.126-.9-2.946-5.535-1.689-4.629,1.276,4.776,15.628,3.387,32.848-.2,48.574a2.435,2.435,0,0,0,2.952,2.952c1.134-.188,2.311-.3,3.427-.569,1.692-.41,2.339-2.418,2.937-3.871a45.23,45.23,0,0,0,2.561-9.84A133.231,133.231,0,0,0,164,63.426a105.2,105.2,0,0,0-1.279-13.632,2.42,2.42,0,0,0-2.953-1.676,2.456,2.456,0,0,0-1.676,2.952Z"/><path class="d" d="M172.834,1.954a66.2,66.2,0,0,0-7.3.79q-3.693.694-7.385,1.388A67.863,67.863,0,0,0,143.462,8.2c-8.615,3.758-15.231,11.3-21.263,18.272a58.365,58.365,0,0,0-7.858,11.061,36.2,36.2,0,0,0-2.56,6.224c-.63,2.088-1.368,4.515-.759,6.68,1.539,5.473,7.855,4.753,12.307,4.789,5.245.043,10.49-.043,15.735-.073,7.372-.042,14.856-.491,22-2.42a88.958,88.958,0,0,0,17.188-7.176c3.575-1.831,7.128-3.7,10.709-5.523,1.821-.924,3.964-1.665,5.508-3.032a12.1,12.1,0,0,0,3.03-4.948,19.025,19.025,0,0,0,1.138-6.2,7.516,7.516,0,0,0-.111-2.259c.047.139-.132.446.027-.091.078-.264.152-.524.242-.783a10.133,10.133,0,0,1,.584-1.3c.347-.7.721-1.381,1.1-2.059.845-1.5,1.743-2.966,2.639-4.435a58.179,58.179,0,0,0,4.741-8.548,4.635,4.635,0,0,0-1.8-5.713c-1.406-.877-3.16-.664-4.738-.61-7.664.26-15.32.9-22.965,1.474l-5.528.418a2.46,2.46,0,0,0-2.4,2.4,2.419,2.419,0,0,0,2.4,2.4c7.379-.557,14.757-1.138,22.144-1.578,1.623-.1,3.247-.186,4.871-.257.659-.028,1.317-.054,1.976-.073.384-.012,1.437.163,1.762-.035.049-.029.136-.028.016.008-.605.18.425-.951-.208-.093-.017.022-.138.346-.039.1.112-.276-.074.159-.1.218-.16.327-.315.656-.482.98-.659,1.28-1.391,2.522-2.131,3.757-1.649,2.753-3.4,5.453-4.915,8.285a22.717,22.717,0,0,0-1.648,3.66,10.216,10.216,0,0,0-.235,3.592,14.854,14.854,0,0,1-.848,5.132,9.988,9.988,0,0,1-.951,2.01c-.1.165-.373.554-.4.587a4.587,4.587,0,0,1-.372.392c-.548.518.133-.051-.2.165a61.074,61.074,0,0,1-5.611,2.843q-2.592,1.323-5.173,2.669c-5.3,2.75-10.667,5.649-16.073,7.6A62.094,62.094,0,0,1,146.987,50.1c-4.141.268-8.275.184-12.42.266q-7.572.149-15.147.013c-1.286-.023-3.463.3-3.81-1.376a5.563,5.563,0,0,1,.329-2.221,30.265,30.265,0,0,1,.9-3.067,38.42,38.42,0,0,1,5.807-10.25,118.482,118.482,0,0,1,8.243-9.418,60.218,60.218,0,0,1,9.492-8.638c7.73-5.319,17.421-6.345,26.423-8.036a54.758,54.758,0,0,1,6.028-.619,2.459,2.459,0,0,0,2.4-2.4A2.419,2.419,0,0,0,172.834,1.954Z"/><path class="d" d="M136.368,34.137a47.26,47.26,0,0,1,6.367-5.992q.442-.359.889-.711c.054-.042.538-.422.273-.215s.29-.221.341-.26q.835-.633,1.691-1.239a29.82,29.82,0,0,1,2.951-1.882,2.422,2.422,0,0,0,.861-3.284,2.45,2.45,0,0,0-3.283-.861,47.05,47.05,0,0,0-6.969,4.938,47.59,47.59,0,0,0-6.515,6.112,2.4,2.4,0,0,0,3.394,3.394Z"/><path class="d" d="M156.668,20.717a19.668,19.668,0,0,1,3.755-.889l-.638.086q.607-.08,1.219-.122a2.552,2.552,0,0,0,1.7-.7,2.4,2.4,0,0,0,0-3.394,2.379,2.379,0,0,0-1.7-.7,22.041,22.041,0,0,0-5.612,1.1,2.555,2.555,0,0,0-1.434,1.1,2.4,2.4,0,0,0,.861,3.284,2.393,2.393,0,0,0,1.849.242Z"/></svg>